<?xml version="1.0"?>
<svg width="1200" height="800" xmlns="http://www.w3.org/2000/svg" xmlns:svg="http://www.w3.org/2000/svg">
 <!-- 背景 -->
 <!-- 标题 -->
 <!-- 用户泳道 -->
 <!-- 系统泳道 -->
 <!-- 用户泳道中的对象 -->
 <!-- 数据消费者 -->
 <!-- 数据空间运营者 -->
 <!-- 系统泳道中的对象 -->
 <!-- 数据消费者连接器 -->
 <!-- 数据空间平台 -->
 <!-- 数据提供方连接器 -->
 <!-- 连接线（使用弯曲路径避免重叠） -->
 <!-- 数据消费者与数据消费者连接器 -->
 <!-- 数据消费者与数据空间平台 -->
 <!-- 数据消费者连接器与数据空间平台 -->
 <!-- 数据消费者连接器与数据提供方连接器 -->
 <!-- 数据空间运营者与数据提供方连接器 -->
 <!-- 消息和序号 -->
 <!-- 1. 查询或浏览公共数据集 -->
 <!-- 2. 获得数据集uuid -->
 <!-- 3. 登录连接器开始订购 -->
 <!-- 4. 获取元数据（可选） -->
 <!-- 5. 协商合同条款 -->
 <!-- 6. 人工确认 -->
 <!-- 7. 合同生效 -->
 <!-- 箭头指示消息流向 -->
 <defs>
  <marker id="arrowhead" markerHeight="7" markerWidth="10" orient="auto" refX="9" refY="3.5">
   <polygon fill="#e67e22" id="svg_1" points="0 0, 10 3.5, 0 7"/>
  </marker>
  <marker id="arrowhead-blue" markerHeight="7" markerWidth="10" orient="auto" refX="9" refY="3.5">
   <polygon fill="#3498db" id="svg_2" points="0 0, 10 3.5, 0 7"/>
  </marker>
  <marker id="arrowhead-purple" markerHeight="7" markerWidth="10" orient="auto" refX="9" refY="3.5">
   <polygon fill="#9b59b6" id="svg_3" points="0 0, 10 3.5, 0 7"/>
  </marker>
  <marker id="arrowhead-green" markerHeight="7" markerWidth="10" orient="auto" refX="9" refY="3.5">
   <polygon fill="#27ae60" id="svg_4" points="0 0, 10 3.5, 0 7"/>
  </marker>
 </defs>
 <!-- 1->2 -->
 <!-- 2->3 -->
 <!-- 3->4 -->
 <!-- 4->5 -->
 <!-- 5->6a -->
 <!-- 5->6b -->
 <!-- 6a,6b->7 -->
 <!-- 图例 -->
 <g class="layer">
  <title>Layer 1</title>
  <rect fill="#f8f9fa" height="800" id="svg_5" width="1200"/>
  <text fill="#2c3e50" font-family="Arial, sans-serif" font-size="18" font-weight="bold" id="svg_6" text-anchor="middle" x="600" y="30">数据消费者订购数据集流程 - 协作图</text>
  <rect fill="#e8f4fd" height="200" id="svg_7" rx="5" stroke="#3498db" stroke-width="2" width="1100" x="50" y="60"/>
  <text fill="#2980b9" font-family="Arial, sans-serif" font-size="14" font-weight="bold" id="svg_8" x="70" y="85">用户泳道</text>
  <rect fill="#f0f8e8" height="450" id="svg_9" rx="5" stroke="#27ae60" stroke-width="2" width="1100" x="50" y="280"/>
  <text fill="#27ae60" font-family="Arial, sans-serif" font-size="14" font-weight="bold" id="svg_10" x="70" y="305">系统泳道</text>
  <rect fill="#3498db" height="60" id="svg_11" rx="5" stroke="#2980b9" stroke-width="2" width="120" x="100" y="120"/>
  <text fill="white" font-family="Arial, sans-serif" font-size="12" font-weight="bold" id="svg_12" text-anchor="middle" x="160" y="140">数据消费者</text>
  <text fill="white" font-family="Arial, sans-serif" font-size="10" id="svg_13" text-anchor="middle" x="160" y="155">(Data Consumer)</text>
  <rect fill="#e74c3c" height="60" id="svg_14" rx="5" stroke="#c0392b" stroke-width="2" width="120" x="950" y="120"/>
  <text fill="white" font-family="Arial, sans-serif" font-size="12" font-weight="bold" id="svg_15" text-anchor="middle" x="1010" y="140">数据空间运营者</text>
  <text fill="white" font-family="Arial, sans-serif" font-size="10" id="svg_16" text-anchor="middle" x="1010" y="155">(Operator)</text>
  <rect fill="#27ae60" height="60" id="svg_17" rx="5" stroke="#229954" stroke-width="2" width="120" x="100" y="340"/>
  <text fill="white" font-family="Arial, sans-serif" font-size="12" font-weight="bold" id="svg_18" text-anchor="middle" x="160" y="360">数据消费者</text>
  <text fill="white" font-family="Arial, sans-serif" font-size="10" id="svg_19" text-anchor="middle" x="160" y="375">连接器</text>
  <rect fill="#9b59b6" height="60" id="svg_20" rx="5" stroke="#8e44ad" stroke-width="2" width="120" x="500" y="340"/>
  <text fill="white" font-family="Arial, sans-serif" font-size="12" font-weight="bold" id="svg_21" text-anchor="middle" x="560" y="360">数据空间平台</text>
  <text fill="white" font-family="Arial, sans-serif" font-size="10" id="svg_22" text-anchor="middle" x="560" y="375">(Platform)</text>
  <rect fill="#f39c12" height="60" id="svg_23" rx="5" stroke="#e67e22" stroke-width="2" width="120" x="900" y="340"/>
  <text fill="white" font-family="Arial, sans-serif" font-size="12" font-weight="bold" id="svg_24" text-anchor="middle" x="960" y="360">数据提供方</text>
  <text fill="white" font-family="Arial, sans-serif" font-size="10" id="svg_25" text-anchor="middle" x="960" y="375">连接器</text>
  <path d="m160,180q0,80 0,160" fill="none" id="svg_26" stroke="#34495e" stroke-width="2"/>
  <path d="m220,150q140,50 280,220" fill="none" id="svg_27" stroke="#34495e" stroke-width="2"/>
  <path d="m220,370q140,0 280,0" fill="none" id="svg_28" stroke="#34495e" stroke-width="2"/>
  <path d="m220,370q340,80 680,0" fill="none" id="svg_29" stroke="#34495e" stroke-width="2"/>
  <path d="m1010,180q0,80 -50,160" fill="none" id="svg_30" stroke="#34495e" stroke-width="2"/>
  <circle cx="360" cy="200" fill="#e74c3c" id="svg_31" r="12" stroke="#c0392b" stroke-width="2"/>
  <text fill="white" font-family="Arial, sans-serif" font-size="10" font-weight="bold" id="svg_32" text-anchor="middle" x="360" y="205">1</text>
  <text fill="#2c3e50" font-family="Arial, sans-serif" font-size="10" id="svg_33" x="280" y="190">查询浏览</text>
  <text fill="#2c3e50" font-family="Arial, sans-serif" font-size="10" id="svg_34" x="280" y="205">公共数据集</text>
  <circle cx="400" cy="220" fill="#e74c3c" id="svg_35" r="12" stroke="#c0392b" stroke-width="2"/>
  <text fill="white" font-family="Arial, sans-serif" font-size="10" font-weight="bold" id="svg_36" text-anchor="middle" x="400" y="225">2</text>
  <text fill="#2c3e50" font-family="Arial, sans-serif" font-size="10" id="svg_37" x="420" y="215">获得数据集</text>
  <text fill="#2c3e50" font-family="Arial, sans-serif" font-size="10" id="svg_38" x="420" y="230">UUID</text>
  <circle cx="140" cy="260" fill="#e74c3c" id="svg_39" r="12" stroke="#c0392b" stroke-width="2"/>
  <text fill="white" font-family="Arial, sans-serif" font-size="10" font-weight="bold" id="svg_40" text-anchor="middle" x="140" y="265">3</text>
  <text fill="#2c3e50" font-family="Arial, sans-serif" font-size="10" id="svg_41" x="80" y="250">登录连接器</text>
  <text fill="#2c3e50" font-family="Arial, sans-serif" font-size="10" id="svg_42" x="80" y="265">开始订购</text>
  <circle cx="360" cy="390" fill="#f39c12" id="svg_43" r="12" stroke="#e67e22" stroke-width="2"/>
  <text fill="white" font-family="Arial, sans-serif" font-size="10" font-weight="bold" id="svg_44" text-anchor="middle" x="360" y="395">4</text>
  <text fill="#2c3e50" font-family="Arial, sans-serif" font-size="10" id="svg_45" x="300" y="410">获取元数据</text>
  <text fill="#2c3e50" font-family="Arial, sans-serif" font-size="10" id="svg_46" x="300" y="425">(可选)</text>
  <circle cx="560" cy="450" fill="#f39c12" id="svg_47" r="12" stroke="#e67e22" stroke-width="2"/>
  <text fill="white" font-family="Arial, sans-serif" font-size="10" font-weight="bold" id="svg_48" text-anchor="middle" x="560" y="455">5</text>
  <text fill="#2c3e50" font-family="Arial, sans-serif" font-size="10" id="svg_49" x="500" y="470">协商合同条款</text>
  <circle cx="180" cy="500" fill="#9b59b6" id="svg_50" r="12" stroke="#8e44ad" stroke-width="2"/>
  <text fill="white" font-family="Arial, sans-serif" font-size="10" font-weight="bold" id="svg_51" text-anchor="middle" x="180" y="505">6a</text>
  <text fill="#2c3e50" font-family="Arial, sans-serif" font-size="10" id="svg_52" x="120" y="520">消费者确认</text>
  <circle cx="980" cy="500" fill="#9b59b6" id="svg_53" r="12" stroke="#8e44ad" stroke-width="2"/>
  <text fill="white" font-family="Arial, sans-serif" font-size="10" font-weight="bold" id="svg_54" text-anchor="middle" x="980" y="505">6b</text>
  <text fill="#2c3e50" font-family="Arial, sans-serif" font-size="10" id="svg_55" x="920" y="520">提供者确认</text>
  <circle cx="560" cy="550" fill="#27ae60" id="svg_56" r="12" stroke="#229954" stroke-width="2"/>
  <text fill="white" font-family="Arial, sans-serif" font-size="10" font-weight="bold" id="svg_57" text-anchor="middle" x="560" y="555">7</text>
  <text fill="#2c3e50" font-family="Arial, sans-serif" font-size="10" id="svg_58" x="500" y="570">合同生效</text>
  <path d="m370,210q15,5 20,10" fill="none" id="svg_59" marker-end="url(#arrowhead)" stroke="#e74c3c" stroke-width="2"/>
  <path d="m390,230q-125,15 -240,20" fill="none" id="svg_60" marker-end="url(#arrowhead)" stroke="#e74c3c" stroke-width="2"/>
  <path d="m150,270q105,60 200,110" fill="none" id="svg_61" marker-end="url(#arrowhead-blue)" stroke="#3498db" stroke-width="2"/>
  <path d="m370,400q95,25 180,40" fill="none" id="svg_62" marker-end="url(#arrowhead)" stroke="#f39c12" stroke-width="2"/>
  <path d="m550,460q-185,20 -360,30" fill="none" id="svg_63" marker-end="url(#arrowhead-purple)" stroke="#9b59b6" stroke-width="2"/>
  <path d="m570,460q205,20 400,30" fill="none" id="svg_64" marker-end="url(#arrowhead-purple)" stroke="#9b59b6" stroke-width="2"/>
  <path d="m190,510q185,20 360,30" fill="none" id="svg_65" marker-end="url(#arrowhead-green)" stroke="#27ae60" stroke-width="2"/>
  <path d="m970,510q-205,20 -400,30" fill="none" id="svg_66" marker-end="url(#arrowhead-green)" stroke="#27ae60" stroke-width="2"/>
  <rect fill="white" height="40" id="svg_67" rx="3" stroke="#bdc3c7" width="400" x="50" y="750"/>
  <text fill="#2c3e50" font-family="Arial, sans-serif" font-size="12" font-weight="bold" id="svg_68" x="60" y="765">图例说明：</text>
  <circle cx="75" cy="780" fill="#e74c3c" id="svg_69" r="8" stroke="#c0392b"/>
  <text fill="#2c3e50" font-family="Arial, sans-serif" font-size="10" id="svg_70" x="90" y="785">消息序号</text>
  <line id="svg_71" stroke="#34495e" stroke-width="2" x1="150" x2="180" y1="780" y2="780"/>
  <text fill="#2c3e50" font-family="Arial, sans-serif" font-size="10" id="svg_72" x="190" y="785">对象连接</text>
  <path d="m250,775l30,5l-30,5" fill="none" id="svg_73" marker-end="url(#arrowhead)" stroke="#e67e22" stroke-width="2"/>
  <text fill="#2c3e50" font-family="Arial, sans-serif" font-size="10" id="svg_74" x="290" y="785">消息流向</text>
 </g>
</svg>